<?xml version="1.0" encoding="utf-8"?>
<!-- Generator: Adobe Illustrator 21.0.0, SVG Export Plug-In . SVG Version: 6.00 Build 0)  -->
<svg version="1.1" id="Layer_1" xmlns="http://www.w3.org/2000/svg" xmlns:xlink="http://www.w3.org/1999/xlink" x="0px" y="0px"
	 viewBox="0 0 15 15" width="15px" height="15px" style="enable-background:new 0 0 15 15;" xml:space="preserve">
<path fill="#414141" d="M15,12.3c0,0.8-0.5,2.7-3.5,2.7C7,15,0,8,0,3.5C0,0.5,2,0,2.5,0c1.8,0,3,1.5,3,3.5C5.5,4.9,4,6,3.4,6
	C3.7,7.1,5,8.5,5.9,9.3c0.8,0.8,1.9,2.1,3.1,2.5c0.2-1.2,1.3-2.2,2.4-2.2C13.3,9.6,15,11.4,15,12.3z"/>
</svg>
