<?xml version="1.0" encoding="utf-8"?>
<!-- Generator: Adobe Illustrator 21.0.0, SVG Export Plug-In . SVG Version: 6.00 Build 0)  -->
<svg version="1.1" id="Layer_1" xmlns="http://www.w3.org/2000/svg" xmlns:xlink="http://www.w3.org/1999/xlink" x="0px" y="0px"
	 viewBox="0 0 15 15" width="15px" height="15px" style="enable-background:new 0 0 15 15;" xml:space="preserve">

<path fill="#414141" d="M15,7.5c0,4.1-3.4,7.5-7.5,7.5S0,11.6,0,7.5S3.4,0,7.5,0S15,3.4,15,7.5z M7.5,1.5c-3.3,0-6,2.7-6,6s2.7,6,6,6
	s6-2.7,6-6S10.8,1.5,7.5,1.5z"/>
<path fill="#414141" d="M13.6,9.9c0,0-4.5,0.1-6,0.1s-6-0.1-6-0.1v-1c0,0,4.5,0.1,6,0.1s6-0.1,6-0.1V9.9z"/>
<path fill="#414141" d="M1.6,5.1c0,0,4.5-0.1,6-0.1s6,0.1,6,0.1v1c0,0-4.5-0.1-6-0.1s-6,0.1-6,0.1V5.1z"/>
<path fill="#414141" d="M7.1,14h1c0,0-2.4-2.2-2.4-6.5C5.7,3.1,8.1,1,8.1,1h-1c0,0-2.4,2.1-2.4,6.5C4.7,12,7.1,14,7.1,14z"/>
<path fill="#414141" d="M8.2,1h-1c0,0,2.4,2.2,2.4,6.5c0,4.4-2.4,6.5-2.4,6.5h1c0,0,2.4-2.1,2.4-6.5C10.6,3,8.2,1,8.2,1z"/>
</svg>
