<?xml version="1.0" encoding="utf-8"?>
<!-- Generator: Adobe Illustrator 21.0.0, SVG Export Plug-In . SVG Version: 6.00 Build 0)  -->
<svg version="1.1" id="vasishta_logo_symbol" xmlns="http://www.w3.org/2000/svg" xmlns:xlink="http://www.w3.org/1999/xlink"
	 x="0px" y="0px" viewBox="0 0 731 731" width="34px" height="34px" style="enable-background:new 0 0 731 731;" xml:space="preserve">
<title>vasishta_logo_symbol</title>
<g id="symbol">
	<circle id="back_ellipse" fill="#EE972E" cx="365.5" cy="365.5" r="365"/>
	<path id="circles" fill="#FFFFFF" d="M700.5,365.5c0,185-150,335-335,335s-335-150-335-335s150-335,335-335S700.5,180.5,700.5,365.5z
		 M365.5,45.5c-176.7,0-320,143.3-320,320s143.3,320,320,320s320-143.3,320-320S542.2,45.5,365.5,45.5z M622.5,365.5
		c0,141.9-115.1,257-257,257s-257-115.1-257-257s115.1-257,257-257S622.5,223.6,622.5,365.5z M365.5,123.5
		c-133.6,0-242,108.4-242,242s108.4,242,242,242s242-108.4,242-242S499.1,123.5,365.5,123.5z"/>
	<path id="triangles" fill="#FFFFFF" d="M515.3,365.5L589,236.6H441l-75.5-128.1L292,236.6H143l74.3,128.9l-74,128.3H292l73.5,128.7
		L441,493.8h148.3L515.3,365.5z M565.5,249.4l-58.4,101.1l-58.6-101.1H565.5z M424.1,493.4l-58.6,101.1l-58.4-101.1L424.1,493.4z
		 M448.5,479.5l58.4-101.1l58.6,101.1H448.5z M166.5,479.5l58.4-101.1l58.6,101.1H166.5z M307.1,235.2l58.4-101.7l58.6,101.7
		L307.1,235.2z M432.5,249.4l29,50h-192l29-50L432.5,249.4z M232.8,363.4l28.8-50.1l96,166.3l-57.8-0.1L232.8,363.4z M431.3,479.4
		l-57.8,0.1l96-166.3l28.8,50.1L431.3,479.4z M277,313.3h177.2l-88.8,154.2L277,313.3z M225.6,350.5L167,249.4h117L225.6,350.5z
		 M380.5,365.5c0,8.3-6.7,15-15,15s-15-6.7-15-15s6.7-15,15-15S380.5,357.2,380.5,365.5z"/>
	<path id="ornament" fill="#FFFFFF" d="M346.5,109.5c0-13,8-49,19-49s19,36,19,49h-12c0,0-3-33-7-33c-4.1,0-7,33-7,33H346.5z
		 M365.5,43.5c3,0,64.2,40.8,86.2,56.8c1,1.1,1.3,2.6,1,4c-1.7,4.2-6.2,17.2-6.2,17.2l12,4c0,0,5.2-14.3,7-19
		c1.5-3.9,0.7-11.4-2.8-14.2c-22.4-18.3-89.2-61.8-97.2-61.8s-77.7,47.4-96.8,61.8c-3.6,3.6-4.8,10-3.2,14.2c1.8,4.7,7,19,7,19l12-4
		c0,0-5-12.8-5.8-17.2c-0.3-1.4,0.1-2.9,1-4C301,84.3,362.5,43.5,365.5,43.5z M358.5,621.5c0,0,2.9,33,7,33c4,0,7-33,7-33h12
		c0,13-8,49-19,49s-19-36-19-49H358.5z M279.7,630.7c-0.9-1.1-1.3-2.6-1-4c0.8-4.4,5.8-17.2,5.8-17.2l-12-4c0,0-5.2,14.3-7,19
		c-1.6,4.2-0.4,10.6,3.2,14.2c19.1,14.4,88.8,61.8,96.8,61.8s74.8-43.5,97.2-61.8c3.5-2.8,4.3-10.3,2.8-14.2c-1.8-4.7-7-19-7-19
		l-12,4c0,0,4.5,13,6.2,17.2c0.3,1.4,0,2.9-1,4c-22,16-83.2,56.8-86.2,56.8S301,646.7,279.7,630.7L279.7,630.7z M109.5,384.5
		c-13,0-49-8-49-19s36-19,49-19v12c0,0-33,3-33,7c0,4.1,33,7,33,7V384.5z M43.5,365.5c0-3,40.8-64.2,56.8-86.2c1.1-1,2.6-1.3,4-1
		c4.2,1.7,17.2,6.2,17.2,6.2l4-12c0,0-14.3-5.2-19-7c-3.9-1.5-11.4-0.7-14.2,2.8c-18.3,22.4-61.8,89.2-61.8,97.2
		s47.4,77.7,61.8,96.8c3.6,3.6,10,4.8,14.2,3.2c4.7-1.8,19-7,19-7l-4-12c0,0-12.8,5-17.2,5.8c-1.4,0.3-2.9-0.1-4-1
		C84.3,430,43.5,368.5,43.5,365.5z M621.5,372.5c0,0,33-2.9,33-7c0-4-33-7-33-7v-12c13,0,49,8,49,19s-36,19-49,19V372.5z
		 M630.7,451.3c-1.1,0.9-2.6,1.3-4,1c-4.4-0.8-17.2-5.8-17.2-5.8l-4,12c0,0,14.3,5.2,19,7c4.2,1.6,10.6,0.4,14.2-3.2
		c14.4-19.1,61.8-88.8,61.8-96.8s-43.5-74.8-61.8-97.2c-2.8-3.5-10.3-4.3-14.2-2.8c-4.7,1.8-19,7-19,7l4,12c0,0,13-4.5,17.2-6.2
		c1.4-0.3,2.9,0,4,1c16,22,56.8,83.2,56.8,86.2S646.7,430,630.7,451.3L630.7,451.3z M171,197.9c-9.2-9.2-29-40.3-21.2-48.1
		s38.9,12,48.1,21.2l-8.5,8.4c0,0-25.5-21.2-28.3-18.4s18.4,28.3,18.4,28.3L171,197.9z M137.8,137.8c2.1-2.1,74.2-16.6,101.1-20.8
		c1.5,0.1,2.8,0.9,3.5,2.1c1.8,4.2,7.8,16.5,7.8,16.5l11.3-5.7c0,0-6.4-13.8-8.5-18.4c-1.7-3.8-7.6-8.5-12-8.1
		c-28.8,2.9-106.8,19.4-112.4,25c-5.7,5.6-21.4,88.4-24.7,112.1c0,5.1,3.7,10.5,7.8,12.3c4.6,2.1,18.4,8.5,18.4,8.5l5.7-11.3
		c0,0-12.6-5.5-16.3-8.1c-1.2-0.8-2-2.1-2.1-3.5C121.1,212.3,135.7,139.9,137.8,137.8L137.8,137.8z M541.5,551.5
		c0,0,25.4,21.3,28.3,18.4s-18.3-28.3-18.3-28.3l8.5-8.5c9.2,9.2,29,40.3,21.2,48.1s-38.9-12-48.1-21.2L541.5,551.5z M492.4,613.7
		c-1.4-0.1-2.7-0.9-3.5-2.1c-2.6-3.7-8.1-16.3-8.1-16.3l-11.3,5.7c0,0,6.4,13.8,8.5,18.4c1.8,4,7.2,7.8,12.3,7.8
		c23.7-3.3,106.5-19.1,112.1-24.7s22.1-83.7,25-112.4c0.5-4.5-4.2-10.3-8.1-12c-4.6-2.1-18.4-8.5-18.4-8.5l-5.7,11.3
		c0,0,12.4,6,16.5,7.8c1.2,0.8,2,2.1,2.1,3.5c-4.2,26.9-18.7,99-20.8,101.1S518.7,609.9,492.4,613.7z M533.1,171
		c9.2-9.2,40.3-29,48.1-21.2s-12,38.9-21.2,48.1l-8.4-8.5c0,0,21.2-25.5,18.4-28.3s-28.3,18.4-28.3,18.4L533.1,171z M593.2,137.8
		c2.1,2.1,16.5,74.2,20.8,101.1c-0.1,1.5-0.9,2.8-2.1,3.5c-4.2,1.8-16.5,7.8-16.5,7.8l5.7,11.3c0,0,13.8-6.4,18.4-8.5
		c3.8-1.7,8.5-7.6,8.1-12c-2.9-28.8-19.4-106.8-25-112.4s-88.5-21.4-112.1-24.7c-5.1,0-10.5,3.7-12.3,7.8
		c-2.1,4.6-8.5,18.4-8.5,18.4l11.3,5.7c0,0,5.5-12.6,8.1-16.3c0.8-1.2,2.1-2,3.5-2.1C518.7,121.1,591.1,135.7,593.2,137.8z
		 M179.5,541.5c0,0-21.3,25.4-18.4,28.3s28.3-18.3,28.3-18.3l8.5,8.5c-9.2,9.2-40.3,29-48.1,21.2s12-38.9,21.2-48.1L179.5,541.5z
		 M117.3,492.4c0.1-1.4,0.9-2.7,2.1-3.5c3.7-2.6,16.3-8.1,16.3-8.1l-5.7-11.3c0,0-13.8,6.4-18.4,8.5c-4.1,1.8-7.8,7.2-7.8,12.3
		c3.3,23.7,19.1,106.5,24.7,112.1s83.6,22.1,112.4,25c4.5,0.5,10.3-4.2,12-8.1c2.1-4.6,8.5-18.4,8.5-18.4l-11.3-5.7
		c0,0-6,12.4-7.8,16.5c-0.8,1.2-2.1,2-3.5,2.1c-26.9-4.2-99-18.7-101.1-20.8S121.1,518.7,117.3,492.4z"/>
</g>
</svg>
