<?xml version="1.0" encoding="utf-8"?>
<!-- Generator: Adobe Illustrator 21.0.0, SVG Export Plug-In . SVG Version: 6.00 Build 0)  -->
<svg version="1.1" width="240px" height="64px" id="vasishta_logotype" xmlns="http://www.w3.org/2000/svg" xmlns:xlink="http://www.w3.org/1999/xlink" x="0px"
	 y="0px" viewBox="0 0 2720.5 731" style="enable-background:new 0 0 2720.5 731;" xml:space="preserve">
<title>vasishta_logotype</title>
<g id="international_research_foundation">
	<path d="M921,552.8v-87.1h8.2v87.1H921z"/>
	<path d="M989.7,497.1c3.3,1.6,6,4,7.9,7.1c2,3.3,3,7.1,2.9,11v37.6h-8.2v-34c0-11.1-5-16.7-14.9-16.7c-5.8,0-10.1,2-13,6.1
		s-4.3,9.6-4.3,16.4v28.1H952v-56.1h8.2v9.4c1.7-3.4,4.4-6.3,7.6-8.3c3.3-2,7.1-3,11-2.9C982.6,494.7,986.3,495.5,989.7,497.1z"/>
	<path d="M1020.2,552.8v-48.7h-9.6v-7.4h9.6v-18.6h8.2v18.6h13v7.4h-13v48.7H1020.2z"/>
	<path d="M1087.7,498.5c4.1,2.5,7.4,6,9.6,10.1c2.4,4.4,3.5,9.3,3.5,14.3c0,1.5,0,2.7-0.1,3.5h-46.2c0.2,5.4,2.2,10.6,5.6,14.8
		c3.4,4.1,8.1,6.1,14,6.1c4.1,0.2,8.3-0.8,11.9-2.7c3.2-1.8,5.8-4.4,7.6-7.5l6.5,4.3c-2.6,4.1-6.2,7.5-10.4,9.8
		c-4.7,2.5-10,3.7-15.4,3.5c-5.1,0.1-10.1-1.2-14.5-3.8c-4.3-2.6-7.7-6.3-10-10.7c-2.5-4.8-3.7-10.1-3.6-15.5
		c-0.1-5.4,1.1-10.7,3.5-15.5c2.2-4.4,5.6-8.1,9.8-10.7c4.3-2.6,9.3-3.9,14.3-3.8C1078.8,494.7,1083.6,496,1087.7,498.5z
		 M1092.6,519.7c-0.8-5.8-2.8-10.2-5.9-13.1s-7.4-4.4-12.7-4.4c-4.8-0.2-9.4,1.6-12.8,5s-5.6,7.8-6.3,12.5H1092.6z"/>
	<path d="M1146.5,495.6v7.4c-1.7-0.8-3.6-1.2-5.5-1.2c-3.4,0-6.8,1-9.6,2.9c-3.1,2.1-5.6,5-7.1,8.3c-1.9,4-2.8,8.4-2.7,12.9v26.9
		h-8.2v-56.2h8.2V508c1.9-3.9,4.7-7.2,8.2-9.7c3.3-2.3,7.2-3.5,11.2-3.5C1142.9,494.7,1144.7,495,1146.5,495.6z"/>
	<path d="M1192.4,497.1c3.3,1.6,6,4,7.9,7.1c2,3.3,3,7.1,2.9,11v37.6h-8.2v-34c0-11.1-5-16.7-14.9-16.7c-5.8,0-10.1,2-13,6.1
		s-4.3,9.6-4.3,16.4v28.1h-8.2v-56.1h8.2v9.4c1.7-3.4,4.4-6.3,7.6-8.3c3.3-2,7.1-3,11-2.9C1185.3,494.7,1189,495.5,1192.4,497.1z"/>
	<path d="M1271,496.7v56.2h-8.2v-8.3c-2.2,3.1-5.1,5.7-8.5,7.5s-7.2,2.7-11,2.7c-5.1,0.1-10-1.2-14.4-3.8c-4.3-2.6-7.7-6.3-10-10.7
		c-4.8-9.8-4.8-21.2-0.1-31c2.2-4.4,5.6-8.1,9.8-10.6c4.3-2.6,9.3-3.9,14.3-3.8c3.9,0,7.8,0.9,11.2,2.7c3.4,1.8,6.4,4.4,8.6,7.6
		v-8.4L1271,496.7z M1253.3,544.4c3-2,5.5-4.7,7-8c3.4-7.4,3.4-15.9,0-23.3c-1.5-3.3-4-6-7-8c-3.1-1.9-6.6-2.9-10.3-2.9
		c-3.6-0.1-7.1,0.9-10.1,2.9s-5.4,4.7-7,8c-1.7,3.6-2.6,7.6-2.5,11.6c-0.1,4.1,0.8,8.1,2.5,11.8c1.6,3.3,4,6,7,8
		c3,1.9,6.5,2.9,10.1,2.9C1246.7,547.4,1250.3,546.4,1253.3,544.4L1253.3,544.4z"/>
	<path d="M1289.8,552.8v-48.7h-9.6v-7.4h9.6v-18.6h8.2v18.6h13v7.4h-13v48.7H1289.8z"/>
	<path d="M1324.3,483.8c-1.2-1.2-1.9-2.9-1.9-4.7c0-1.7,0.6-3.3,1.9-4.5c1.2-1.2,2.9-1.9,4.6-1.9s3.4,0.7,4.6,1.9
		c2.5,2.5,2.5,6.6,0,9.2S1326.9,486.4,1324.3,483.8z M1324.9,552.8v-56.2h8.2v56.2H1324.9z"/>
	<path d="M1362.3,550.9c-4.3-2.6-7.7-6.3-10-10.7c-4.8-9.8-4.8-21.2-0.1-31c2.2-4.4,5.6-8.1,9.8-10.6c4.3-2.6,9.3-3.9,14.3-3.8
		c5.1-0.1,10,1.3,14.4,3.8c4.3,2.6,7.7,6.3,10,10.7c2.5,4.8,3.7,10.1,3.6,15.5c0.1,5.4-1.1,10.7-3.5,15.5c-2.2,4.4-5.6,8.1-9.8,10.7
		c-4.3,2.6-9.3,3.9-14.3,3.8C1371.6,554.8,1366.7,553.5,1362.3,550.9z M1386.7,544.4c3-2,5.5-4.7,7-8c3.4-7.4,3.4-15.9,0-23.3
		c-1.5-3.3-4-6-7-8c-3.1-1.9-6.6-2.9-10.3-2.9c-3.6-0.1-7.1,0.9-10.1,2.9s-5.4,4.7-7,8c-1.7,3.6-2.6,7.6-2.5,11.6
		c-0.1,4.1,0.8,8.1,2.5,11.8c1.6,3.3,4,6,7,8c3,1.9,6.5,2.9,10.1,2.9C1380.1,547.4,1383.7,546.4,1386.7,544.4L1386.7,544.4z"/>
	<path d="M1454.2,497.1c3.3,1.6,6,4,7.9,7.1c2,3.3,3,7.1,2.9,11v37.6h-8.2v-34c0-11.1-5-16.7-14.9-16.7c-5.8,0-10.1,2-13,6.1
		s-4.3,9.6-4.3,16.4v28.1h-8.2v-56.1h8.2v9.4c1.7-3.4,4.4-6.3,7.6-8.3c3.3-2,7.1-3,11-2.9C1447.1,494.7,1450.8,495.5,1454.2,497.1z"
		/>
	<path d="M1533.9,496.7v56.2h-8.2v-8.3c-2.2,3.1-5.1,5.7-8.5,7.5s-7.2,2.7-11,2.7c-5.1,0.1-10-1.2-14.4-3.8
		c-4.3-2.6-7.7-6.3-10-10.7c-4.8-9.8-4.8-21.2-0.1-31c2.2-4.4,5.6-8.1,9.8-10.6c4.3-2.6,9.3-3.9,14.3-3.8c3.9,0,7.8,0.9,11.2,2.7
		c3.4,1.8,6.4,4.4,8.6,7.6v-8.4L1533.9,496.7z M1516.2,544.4c3-2,5.5-4.7,7-8c3.4-7.4,3.4-15.9,0-23.3c-1.5-3.3-4-6-7-8
		c-3.1-1.9-6.6-2.9-10.3-2.9c-3.6-0.1-7.1,0.9-10.1,2.9s-5.4,4.7-7,8c-1.7,3.6-2.6,7.6-2.5,11.6c-0.1,4.1,0.8,8.1,2.5,11.8
		c1.6,3.3,4,6,7,8c3,1.9,6.5,2.9,10.1,2.9C1509.5,547.4,1513.1,546.4,1516.2,544.4z"/>
	<path d="M1549.2,552.8v-87.1h8.2v87.1H1549.2z"/>
	<path d="M1672.9,552.8l-20.8-36.1h-16.2v36.1h-9V471h27.4c4.5-0.1,9,0.9,13.1,2.9c3.6,1.8,6.6,4.6,8.6,8.1c2,3.6,3.1,7.8,3,11.9
		c0.1,5.1-1.6,10.1-4.9,14c-3.4,4-8,6.7-13.1,7.9l21.4,37.1L1672.9,552.8z M1635.9,509.3h17.2c5.3,0,9.3-1.4,12.2-4.2
		c2.8-2.8,4.3-6.5,4.3-11.2s-1.4-8.4-4.3-11.2c-2.8-2.8-6.9-4.2-12.2-4.3h-17.2V509.3z"/>
	<path d="M1732.2,498.5c4.1,2.5,7.4,6,9.6,10.1c2.4,4.4,3.5,9.3,3.5,14.3c0,1.5,0,2.7-0.1,3.5H1699c0.2,5.4,2.2,10.6,5.6,14.8
		c3.4,4.1,8.1,6.1,14,6.1c4.1,0.2,8.3-0.8,11.9-2.7c3.2-1.8,5.8-4.4,7.6-7.5l6.5,4.3c-2.6,4.1-6.2,7.5-10.4,9.8
		c-4.7,2.5-10,3.7-15.4,3.5c-5.1,0.1-10.1-1.2-14.5-3.8c-4.3-2.6-7.7-6.3-10-10.7c-2.5-4.8-3.7-10.1-3.6-15.5
		c-0.1-5.4,1.1-10.7,3.5-15.5c2.2-4.4,5.6-8.1,9.8-10.7c4.3-2.6,9.3-3.9,14.3-3.8C1723.3,494.7,1728,496,1732.2,498.5z
		 M1737.1,519.7c-0.8-5.8-2.8-10.2-5.9-13.1s-7.4-4.4-12.7-4.4c-4.8-0.2-9.4,1.6-12.8,5s-5.6,7.8-6.3,12.5H1737.1z"/>
	<path d="M1763.3,551.3c-4.1-2.3-7.3-5.7-9.4-9.8l7.3-3.6c3,6.3,8.8,9.5,17.4,9.5c3.6,0.1,7.1-0.7,10.3-2.3c2.6-1.4,4.2-4.1,4.1-7.1
		c0-3.3-1.1-5.7-3.3-7.3c-2.2-1.6-6.1-2.6-11.6-3.1c-7.7-0.7-13.2-2.4-16.5-5.2c-3.3-2.7-5.2-6.9-5-11.2c0-5.2,1.9-9.2,5.6-12.1
		s8.9-4.3,15.5-4.3c11.1,0,18.7,4.4,22.7,13.2l-7.3,3.6c-1.1-2.9-3.2-5.4-5.9-7.1c-3.1-1.6-6.5-2.4-10-2.3c-4.2,0-7.3,0.8-9.5,2.3
		c-2.2,1.4-3.4,3.9-3.3,6.5c0,2.6,1.3,5,3.5,6.4c2.4,1.6,6.4,2.7,12.2,3.2c7.1,0.7,12.4,2.4,15.9,5.2c3.4,2.7,5.4,6.9,5.2,11.2
		c0.1,3.5-1.1,6.9-3.2,9.7c-2.3,2.8-5.3,4.9-8.6,6.1c-3.7,1.4-7.7,2-11.6,2C1772.7,554.8,1767.8,553.6,1763.3,551.3z"/>
	<path d="M1852.1,498.5c4.1,2.5,7.4,6,9.6,10.1c2.4,4.4,3.5,9.3,3.5,14.3c0,1.5,0,2.7-0.1,3.5h-46.2c0.2,5.4,2.2,10.6,5.6,14.8
		c3.4,4.1,8.1,6.1,14,6.1c4.1,0.2,8.3-0.8,11.9-2.7c3.2-1.8,5.8-4.4,7.6-7.5l6.5,4.3c-2.6,4.1-6.2,7.5-10.4,9.8
		c-4.7,2.5-10,3.7-15.4,3.5c-5.1,0.1-10.1-1.2-14.5-3.8c-4.3-2.6-7.7-6.3-10-10.7c-2.5-4.8-3.7-10.1-3.6-15.5
		c-0.1-5.4,1.1-10.7,3.5-15.5c2.2-4.4,5.6-8.1,9.8-10.7c4.3-2.6,9.3-3.9,14.3-3.8C1843.2,494.7,1848,496,1852.1,498.5z
		 M1857.1,519.7c-0.8-5.8-2.8-10.2-5.9-13.1s-7.3-4.4-12.7-4.4c-4.8-0.2-9.4,1.6-12.8,5s-5.6,7.8-6.3,12.5H1857.1z"/>
	<path d="M1930.1,496.7v56.2h-8.2v-8.3c-2.2,3.1-5.1,5.7-8.5,7.5s-7.2,2.7-11,2.7c-5.1,0.1-10-1.2-14.4-3.8
		c-4.3-2.6-7.7-6.3-10-10.7c-4.8-9.8-4.8-21.2-0.1-31c2.2-4.4,5.6-8.1,9.8-10.6c4.3-2.6,9.3-3.9,14.3-3.8c3.9,0,7.8,0.9,11.2,2.7
		c3.4,1.8,6.4,4.4,8.6,7.6v-8.4L1930.1,496.7z M1912.4,544.4c3-2,5.5-4.7,7-8c3.4-7.4,3.4-15.9,0-23.3c-1.5-3.3-4-6-7-8
		c-3.1-1.9-6.6-2.9-10.3-2.9c-3.6-0.1-7.1,0.9-10.1,2.9s-5.4,4.7-7,8c-1.7,3.6-2.6,7.6-2.5,11.6c-0.1,4.1,0.8,8.1,2.5,11.8
		c1.6,3.3,4,6,7,8c3,1.9,6.5,2.9,10.1,2.9S1909.3,546.4,1912.4,544.4L1912.4,544.4z"/>
	<path d="M1978.9,495.6v7.4c-1.7-0.8-3.6-1.2-5.5-1.2c-3.4,0-6.8,1-9.6,2.9c-3.1,2.1-5.6,5-7.1,8.3c-1.9,4-2.8,8.4-2.7,12.9v26.9
		h-8.2v-56.2h8.2V508c1.9-3.9,4.7-7.2,8.2-9.7c3.3-2.3,7.2-3.5,11.2-3.5C1975.3,494.7,1977.1,495,1978.9,495.6z"/>
	<path d="M1994.8,550.9c-4.3-2.6-7.7-6.3-10-10.7c-2.5-4.8-3.7-10.1-3.6-15.5c-0.1-5.4,1.1-10.7,3.5-15.5c2.2-4.4,5.7-8.1,9.9-10.7
		c4.4-2.6,9.3-3.9,14.4-3.8c4.2-0.1,8.3,0.9,11.9,2.9c3.6,2.1,6.8,5,9.3,8.3l-6,4.7c-3.9-5.7-9-8.5-15.2-8.5c-3.6,0-7.1,1-10.1,2.9
		c-3,2-5.5,4.7-7,8c-3.4,7.4-3.4,15.9,0,23.3c1.5,3.3,4,6,7,8c3,1.9,6.6,2.9,10.1,2.9c3.3,0.1,6.5-0.6,9.5-2
		c2.6-1.4,4.9-3.4,6.7-5.8l6.4,4.4c-2.7,3.3-6,6-9.8,7.9C2013.2,555.9,2003,555.6,1994.8,550.9L1994.8,550.9z"/>
	<path d="M2080.4,497.1c3.3,1.6,6,4,7.9,7.1c2,3.3,3,7.1,2.9,11v37.6h-8.2v-34c0-11.1-5-16.7-14.9-16.7c-5.8,0-10.1,2-13,6.1
		s-4.3,9.6-4.3,16.4v28.1h-8.2v-87h8.2V506c1.7-3.4,4.4-6.3,7.6-8.3c3.3-2,7.1-3,11-2.9C2073.3,494.7,2077,495.5,2080.4,497.1z"/>
	<path d="M2160.9,552.8V471h44.6v7.6h-35.6v28.6h26.4v7.3h-26.4v38.4h-9V552.8z"/>
	<path d="M2222.8,550.9c-4.3-2.6-7.7-6.3-10-10.7c-4.8-9.8-4.8-21.2-0.1-31c2.2-4.4,5.6-8.1,9.8-10.6c4.3-2.6,9.3-3.9,14.3-3.8
		c5.1-0.1,10,1.3,14.4,3.8c4.3,2.6,7.7,6.3,10,10.7c2.5,4.8,3.7,10.1,3.6,15.5c0.1,5.4-1.1,10.7-3.5,15.5c-2.2,4.4-5.6,8.1-9.8,10.7
		c-4.3,2.6-9.3,3.9-14.3,3.8C2232.1,554.8,2227.1,553.5,2222.8,550.9z M2247.2,544.4c3-2,5.5-4.7,7-8c3.4-7.4,3.4-15.9,0-23.3
		c-1.5-3.3-4-6-7-8c-3.1-1.9-6.6-2.9-10.3-2.9c-3.6-0.1-7.1,0.9-10.1,2.9s-5.4,4.7-7,8c-1.7,3.6-2.6,7.6-2.5,11.6
		c-0.1,4.1,0.8,8.1,2.5,11.8c1.6,3.3,4,6,7,8c3,1.9,6.5,2.9,10.1,2.9C2240.6,547.4,2244.1,546.4,2247.2,544.4z"/>
	<path d="M2326.4,496.7v56.2h-8.2v-9.3c-1.7,3.4-4.4,6.3-7.6,8.3c-3.3,2-7.1,3-11,2.9c-3.8,0-7.5-0.8-10.9-2.4c-3.3-1.6-6-4-7.9-7.1
		c-2-3.3-3-7.1-2.9-11v-37.6h8.2v34c0,11.1,5,16.7,14.9,16.7c5.8,0,10.1-2,13-6.1s4.3-9.6,4.3-16.4v-28.1h8.1V496.7z"/>
	<path d="M2379.7,497.1c3.3,1.6,6,4,7.9,7.1c2,3.3,3,7.1,2.9,11v37.6h-8.2v-34c0-11.1-5-16.7-14.9-16.7c-5.8,0-10.1,2-13,6.1
		s-4.3,9.6-4.3,16.4v28.1h-8.2v-56.1h8.2v9.4c1.7-3.4,4.4-6.3,7.6-8.3c3.3-2,7.1-3,11-2.9C2372.6,494.7,2376.3,495.5,2379.7,497.1z"
		/>
	<path d="M2459.4,465.7v87.1h-8.2v-8.3c-2.2,3.1-5.1,5.7-8.5,7.5s-7.2,2.7-11,2.7c-5.1,0.1-10-1.2-14.4-3.8
		c-4.3-2.6-7.7-6.3-10-10.7c-4.8-9.8-4.8-21.2-0.1-31c2.2-4.4,5.6-8.1,9.8-10.6c4.3-2.6,9.3-3.9,14.3-3.8c3.9,0,7.8,0.9,11.2,2.7
		c3.4,1.8,6.4,4.4,8.6,7.6v-39.4L2459.4,465.7L2459.4,465.7z M2441.7,544.4c3-2,5.5-4.7,7-8c3.4-7.4,3.4-15.9,0-23.3
		c-1.5-3.3-4-6-7-8c-3.1-1.9-6.6-2.9-10.3-2.9c-3.6-0.1-7.1,0.9-10.1,2.9s-5.4,4.7-7,8c-1.7,3.6-2.6,7.6-2.5,11.6
		c-0.1,4.1,0.8,8.1,2.5,11.8c1.6,3.3,4,6,7,8c3,1.9,6.5,2.9,10.1,2.9C2435.1,547.4,2438.6,546.4,2441.7,544.4z"/>
	<path d="M2526.4,496.7v56.2h-8.2v-8.3c-2.2,3.1-5.1,5.7-8.5,7.5s-7.2,2.7-11,2.7c-5.1,0.1-10-1.2-14.4-3.8
		c-4.3-2.6-7.7-6.3-10-10.7c-4.8-9.8-4.8-21.2-0.1-31c2.2-4.4,5.6-8.1,9.8-10.6c4.3-2.6,9.3-3.9,14.3-3.8c3.9,0,7.8,0.9,11.2,2.7
		c3.4,1.8,6.4,4.4,8.6,7.6v-8.4L2526.4,496.7z M2508.7,544.4c3-2,5.5-4.7,7-8c3.4-7.4,3.4-15.9,0-23.3c-1.5-3.3-4-6-7-8
		c-3.1-1.9-6.6-2.9-10.3-2.9c-3.6-0.1-7.1,0.9-10.1,2.9s-5.4,4.7-7,8c-1.7,3.6-2.6,7.6-2.5,11.6c-0.1,4.1,0.8,8.1,2.5,11.8
		c1.6,3.3,4,6,7,8c3,1.9,6.5,2.9,10.1,2.9S2505.6,546.4,2508.7,544.4L2508.7,544.4z"/>
	<path d="M2545.1,552.8v-48.7h-9.6v-7.4h9.6v-18.6h8.2v18.6h13v7.4h-13v48.7H2545.1z"/>
	<path d="M2579.7,483.8c-1.2-1.2-1.9-2.9-1.9-4.7c0-1.7,0.6-3.3,1.9-4.5c1.2-1.2,2.9-1.9,4.6-1.9c1.7,0,3.4,0.7,4.6,1.9
		c2.5,2.5,2.5,6.6,0,9.2S2582.2,486.4,2579.7,483.8L2579.7,483.8z M2580.2,552.8v-56.2h8.2v56.2H2580.2z"/>
	<path d="M2617.6,550.9c-4.3-2.6-7.7-6.3-10-10.7c-4.8-9.8-4.8-21.2-0.1-31c2.2-4.4,5.6-8.1,9.8-10.6c4.3-2.6,9.3-3.9,14.3-3.8
		c5.1-0.1,10,1.3,14.4,3.8c4.3,2.6,7.7,6.3,10,10.7c2.5,4.8,3.7,10.1,3.6,15.5c0.1,5.4-1.1,10.7-3.5,15.5c-2.2,4.4-5.6,8.1-9.8,10.7
		c-4.3,2.6-9.3,3.9-14.3,3.8C2627,554.8,2622,553.5,2617.6,550.9z M2642.1,544.4c3-2,5.5-4.7,7-8c3.4-7.4,3.4-15.9,0-23.3
		c-1.5-3.3-4-6-7-8c-3.1-1.9-6.6-2.9-10.3-2.9c-3.6-0.1-7.1,0.9-10.1,2.9s-5.4,4.7-7,8c-1.7,3.6-2.6,7.6-2.5,11.6
		c-0.1,4.1,0.8,8.1,2.5,11.8c1.6,3.3,4,6,7,8c3,1.9,6.5,2.9,10.1,2.9C2635.4,547.4,2639,546.4,2642.1,544.4L2642.1,544.4z"/>
	<path d="M2709.6,497.1c3.3,1.6,6,4,7.9,7.1c2,3.3,3,7.1,2.9,11v37.6h-8.2v-34c0-11.1-5-16.7-14.9-16.7c-5.8,0-10.1,2-13,6.1
		s-4.3,9.6-4.3,16.4v28.1h-8.2v-56.1h8.2v9.4c1.7-3.4,4.4-6.3,7.6-8.3c3.3-2,7.1-3,11-2.9C2702.5,494.7,2706.2,495.5,2709.6,497.1z"
		/>
</g>
<g id="vasishta_yoga">
	<path d="M938.4,180.3l58.5,127.2h0.9l56.8-127.1h16.9l-74.2,162.8L921,180.3H938.4z"/>
	<path d="M1203.4,339.5l-31.1-62.4h-67.5l-30.9,62.4h-16l81-162.9h0.5l81,162.9H1203.4z M1164.9,262.2l-26.2-53.1l-26.4,53.1H1164.9
		z"/>
	<path d="M1250.2,305.4c3.4,6.6,8.4,12.3,14.5,16.5c6.5,4.4,14.1,6.7,21.9,6.5c4.5,0,9.1-0.7,13.3-2.2c3.9-1.3,7.4-3.4,10.6-6
		c2.9-2.5,5.3-5.7,7-9.2c1.7-3.6,2.6-7.6,2.6-11.6c0-6-1.3-10.9-3.9-14.7c-2.7-3.9-6.2-7.1-10.3-9.5c-4.6-2.7-9.5-4.9-14.6-6.6
		c-5.5-1.9-11-3.9-16.6-6c-3.9-1.5-7.8-3.3-11.5-5.3c-4-2.2-7.6-5-10.7-8.2c-3.3-3.5-5.9-7.5-7.8-11.9c-2.1-5.2-3.1-10.8-3-16.5
		c-0.1-6,1.2-12,3.6-17.5c2.4-5.3,5.8-10,10.1-13.9c4.5-4,9.7-7.1,15.3-9.2c6.2-2.2,12.7-3.3,19.3-3.2c9.7,0,18.1,2,25.2,6
		c6.5,3.6,12.4,8.3,17.3,13.9l-11.4,12.1c-3.4-4.9-7.7-9-12.8-12.2c-5.6-3.4-12-5.2-18.6-5c-9.6,0-17.2,2.8-22.8,8.4
		c-5.6,5.6-8.5,12.6-8.5,21.1c-0.1,4.3,0.9,8.5,3,12.2c2,3.3,4.6,6.2,7.7,8.5c3.2,2.4,6.6,4.3,10.3,5.8c3.8,1.5,7.5,2.9,11.2,4.2
		c4.8,1.7,9.9,3.6,15.4,5.8c5.4,2.1,10.5,5,15,8.6c4.6,3.7,8.4,8.2,11.2,13.3c3,5.3,4.5,11.9,4.5,19.8c0,5.7-1.1,11.3-3.3,16.6
		c-2.2,5.3-5.4,10.1-9.6,14c-4.6,4.2-9.9,7.5-15.8,9.7c-6.9,2.6-14.1,3.8-21.5,3.7c-3.5,0-7-0.3-10.4-0.8c-4.4-0.6-8.6-1.9-12.6-3.7
		c-10.7-4.8-19.6-12.9-25.4-23.1L1250.2,305.4z"/>
	<path d="M1369.3,180.3l15.5,0.2v158.9l-15.5-0.2V180.3z"/>
	<path d="M1429.6,305.4c3.4,6.6,8.4,12.3,14.5,16.5c6.5,4.4,14.1,6.7,21.9,6.5c4.5,0,9.1-0.7,13.3-2.2c3.9-1.3,7.4-3.4,10.6-6
		c2.9-2.5,5.3-5.7,7-9.2c1.7-3.6,2.6-7.6,2.6-11.6c0-6-1.3-10.9-3.9-14.7c-2.7-3.9-6.2-7.1-10.3-9.5c-4.6-2.7-9.6-5-14.7-6.6
		c-5.5-1.9-11-3.9-16.6-6c-3.9-1.5-7.8-3.3-11.5-5.3c-4-2.2-7.6-5-10.7-8.2c-3.3-3.5-5.9-7.5-7.8-11.9c-2.1-5.2-3.1-10.8-3-16.5
		c-0.1-6,1.2-12,3.6-17.5c2.4-5.3,5.8-10,10.1-13.9c4.5-4,9.7-7.1,15.3-9.2c6.2-2.2,12.7-3.3,19.3-3.2c9.7,0,18.1,2,25.2,6
		c6.5,3.6,12.4,8.3,17.3,13.9l-11.4,12.1c-3.4-4.9-7.7-9-12.8-12.2c-5.6-3.4-12-5.2-18.6-5c-9.6,0-17.2,2.8-22.8,8.4
		c-5.6,5.6-8.5,12.6-8.5,21.1c-0.1,4.3,0.9,8.5,3,12.2c2,3.3,4.6,6.2,7.7,8.5c3.2,2.4,6.6,4.3,10.3,5.8c3.8,1.5,7.5,2.9,11.2,4.2
		c4.8,1.7,9.9,3.6,15.4,5.8c5.4,2.1,10.5,5,15,8.6c4.6,3.7,8.4,8.2,11.2,13.3c3,5.3,4.5,11.9,4.5,19.8c0,5.7-1.1,11.3-3.2,16.6
		c-2.2,5.3-5.4,10.1-9.6,14c-4.6,4.2-9.9,7.5-15.8,9.7c-6.9,2.6-14.1,3.8-21.5,3.7c-3.5,0-7-0.3-10.4-0.8c-4.4-0.6-8.6-1.9-12.6-3.7
		c-10.7-4.8-19.6-12.9-25.4-23.1L1429.6,305.4z"/>
	<path d="M1562.9,180.3v71.9h94.9v-71.9h15.5v159.2h-15.5v-72.4h-94.9v72.4h-15.5V180.3H1562.9z"/>
	<path d="M1754.7,339.5h-15.5V195.2h-40.4v-14.8h97.2v14.9h-41.3L1754.7,339.5z"/>
	<path d="M1955.8,339.5l-31.1-62.4h-67.5l-30.9,62.4h-16l81-162.9h0.5l81,162.9H1955.8z M1917.3,262.2l-26.2-53.1l-26.4,53.1H1917.3
		z"/>
	<path d="M2088.2,180.3l46.2,82.4h0.9l41.1-82.4h17.9l-81,159.1h-18.8l32-59.9l-56.4-99.3L2088.2,180.3z"/>
	<path d="M2205.2,260.1c0-13.5,2.6-25.4,7.9-35.8c4.9-10,11.8-18.9,20.3-26.2c8.1-6.9,17.4-12.4,27.5-16c19-7.3,40-7.3,58.9,0
		c10.1,3.6,19.4,9.1,27.5,16c8.5,7.3,15.4,16.2,20.3,26.2c5.3,10.4,7.9,22.4,7.9,35.8c0,10.7-2.1,21.2-6.3,31.1
		c-4.1,9.9-10.1,18.9-17.6,26.6c-7.7,7.8-16.9,14-26.9,18.4c-21.9,9.3-46.7,9.3-68.7,0c-10-4.4-19.2-10.7-26.9-18.4
		c-7.6-7.6-13.5-16.6-17.6-26.6C2207.3,281.4,2205.2,270.8,2205.2,260.1z M2221.9,259.4c-0.1,18.2,6.9,35.8,19.6,48.8
		c6.2,6.3,13.5,11.3,21.7,14.7c17.4,7.1,36.9,7.1,54.3,0c8.1-3.4,15.5-8.4,21.7-14.7c18.8-19.4,24.7-47.9,15.1-73.1
		c-3-8.1-7.5-15.5-13.2-21.9c-6-6.7-13.3-12-21.5-15.8c-8.5-4-18.2-6-29.2-6s-20.7,2-29.2,6c-8.1,3.8-15.4,9.1-21.5,15.8
		c-5.7,6.4-10.2,13.8-13.2,21.9C2223.4,242.9,2221.9,251.2,2221.9,259.4L2221.9,259.4z"/>
	<path d="M2523.3,210c-2.6-2.5-5.5-4.7-8.5-6.7c-7.2-4.8-15.1-8.3-23.6-10.2c-13.3-3-27.3-1.8-39.9,3.4c-7.9,3.3-15.2,8.1-21.2,14.1
		c-6.3,6.3-11.2,13.8-14.6,22c-3.7,9-5.6,18.7-5.4,28.4c0,8.4,1.5,16.7,4.5,24.6c6.1,16.5,18.6,29.8,34.6,36.9c9,4,18.8,6,28.6,5.8
		c7.3,0,14.5-1.1,21.5-3.2c7.6-2.5,14.7-6.4,21-11.4v-45h-47.8v-14.8h64.5v67.5c-5.3,4.4-11.1,8.3-17.2,11.5
		c-5.1,2.7-10.5,4.9-16,6.6c-4.7,1.5-9.5,2.5-14.4,3c-3.9,0.4-7.9,0.7-11.8,0.7c-13.9,0-26.1-2.4-36.5-7.3c-10-4.5-18.9-11-26.3-19
		c-7-7.6-12.4-16.6-16-26.3c-3.5-9.4-5.3-19.2-5.3-29.2c0-10.5,1.9-20.9,5.6-30.7c3.6-10,9.1-19.2,16.2-27.1
		c7.4-8.2,16.3-14.8,26.3-19.4c10.4-4.9,22.4-7.4,35.8-7.4c4.3,0,8.6,0.3,12.9,0.9c4.7,0.7,9.4,1.7,13.9,3.2c5,1.7,9.8,3.8,14.4,6.4
		c5.2,3,10.1,6.5,14.5,10.6L2523.3,210z"/>
	<path d="M2703.6,339.5l-31.1-62.4H2605l-30.9,62.4h-16l81-162.9h0.5l80.9,162.9H2703.6z M2665.1,262.2l-26.2-53.1l-26.4,53.1
		H2665.1z"/>
</g>
<g id="symbol">
	<circle id="back_ellipse" fill="#EE972E" cx="365.5" cy="365.5" r="365"/>
	<path id="circles" fill="#FFFFFF" d="M700.5,365.5c0,185-150,335-335,335s-335-150-335-335s150-335,335-335S700.5,180.5,700.5,365.5z
		 M365.5,45.5c-176.7,0-320,143.3-320,320s143.3,320,320,320s320-143.3,320-320S542.2,45.5,365.5,45.5z M622.5,365.5
		c0,141.9-115.1,257-257,257s-257-115.1-257-257s115.1-257,257-257S622.5,223.6,622.5,365.5z M365.5,123.5
		c-133.6,0-242,108.4-242,242s108.4,242,242,242s242-108.4,242-242S499.1,123.5,365.5,123.5z"/>
	<path id="triangles" fill="#FFFFFF" d="M515.3,365.5L589,236.6H441l-75.5-128.1L292,236.6H143l74.3,128.9l-74,128.3H292l73.5,128.7
		L441,493.8h148.3L515.3,365.5z M565.5,249.4l-58.4,101.1l-58.6-101.1H565.5z M424.1,493.4l-58.6,101.1l-58.4-101.1H424.1z
		 M448.5,479.5l58.4-101.1l58.6,101.1H448.5z M166.5,479.5l58.4-101.1l58.6,101.1H166.5z M307.1,235.2l58.4-101.7l58.6,101.7H307.1z
		 M432.5,249.4l29,50h-192l29-50H432.5z M232.8,363.4l28.8-50.1l96,166.3l-57.8-0.1L232.8,363.4z M431.3,479.4l-57.8,0.1l96-166.3
		l28.8,50.1L431.3,479.4z M277,313.3h177.2l-88.8,154.2L277,313.3z M225.6,350.5L167,249.4h117L225.6,350.5z M380.5,365.5
		c0,8.3-6.7,15-15,15s-15-6.7-15-15s6.7-15,15-15S380.5,357.2,380.5,365.5z"/>
	<path id="ornament" fill="#FFFFFF" d="M346.5,109.5c0-13,8-49,19-49s19,36,19,49h-12c0,0-3-33-7-33c-4.1,0-7,33-7,33H346.5z
		 M365.5,43.5c3,0,64.2,40.8,86.2,56.8c1,1.1,1.3,2.6,1,4c-1.7,4.2-6.2,17.2-6.2,17.2l12,4c0,0,5.2-14.3,7-19
		c1.5-3.9,0.7-11.4-2.8-14.2c-22.4-18.3-89.2-61.8-97.2-61.8s-77.7,47.4-96.8,61.8c-3.6,3.6-4.8,10-3.2,14.2c1.8,4.7,7,19,7,19l12-4
		c0,0-5-12.8-5.8-17.2c-0.3-1.4,0.1-2.9,1-4C301,84.3,362.5,43.5,365.5,43.5z M358.5,621.5c0,0,2.9,33,7,33c4,0,7-33,7-33h12
		c0,13-8,49-19,49s-19-36-19-49H358.5z M279.7,630.7c-0.9-1.1-1.3-2.6-1-4c0.8-4.4,5.8-17.2,5.8-17.2l-12-4c0,0-5.2,14.3-7,19
		c-1.6,4.2-0.4,10.6,3.2,14.2c19.1,14.4,88.8,61.8,96.8,61.8s74.8-43.5,97.2-61.8c3.5-2.8,4.3-10.3,2.8-14.2c-1.8-4.7-7-19-7-19
		l-12,4c0,0,4.5,13,6.2,17.2c0.3,1.4,0,2.9-1,4c-22,16-83.2,56.8-86.2,56.8S301,646.7,279.7,630.7L279.7,630.7z M109.5,384.5
		c-13,0-49-8-49-19s36-19,49-19v12c0,0-33,3-33,7c0,4.1,33,7,33,7V384.5z M43.5,365.5c0-3,40.8-64.2,56.8-86.2c1.1-1,2.6-1.3,4-1
		c4.2,1.7,17.2,6.2,17.2,6.2l4-12c0,0-14.3-5.2-19-7c-3.9-1.5-11.4-0.7-14.2,2.8c-18.3,22.4-61.8,89.2-61.8,97.2
		s47.4,77.7,61.8,96.8c3.6,3.6,10,4.8,14.2,3.2c4.7-1.8,19-7,19-7l-4-12c0,0-12.8,5-17.2,5.8c-1.4,0.3-2.9-0.1-4-1
		C84.3,430,43.5,368.5,43.5,365.5z M621.5,372.5c0,0,33-2.9,33-7c0-4-33-7-33-7v-12c13,0,49,8,49,19s-36,19-49,19V372.5z
		 M630.7,451.3c-1.1,0.9-2.6,1.3-4,1c-4.4-0.8-17.2-5.8-17.2-5.8l-4,12c0,0,14.3,5.2,19,7c4.2,1.6,10.6,0.4,14.2-3.2
		c14.4-19.1,61.8-88.8,61.8-96.8s-43.5-74.8-61.8-97.2c-2.8-3.5-10.3-4.3-14.2-2.8c-4.7,1.8-19,7-19,7l4,12c0,0,13-4.5,17.2-6.2
		c1.4-0.3,2.9,0,4,1c16,22,56.8,83.2,56.8,86.2S646.7,430,630.7,451.3L630.7,451.3z M171,197.9c-9.2-9.2-29-40.3-21.2-48.1
		s38.9,12,48.1,21.2l-8.5,8.4c0,0-25.5-21.2-28.3-18.4s18.4,28.3,18.4,28.3L171,197.9z M137.8,137.8c2.1-2.1,74.2-16.6,101.1-20.8
		c1.5,0.1,2.8,0.9,3.5,2.1c1.8,4.2,7.8,16.5,7.8,16.5l11.3-5.7c0,0-6.4-13.8-8.5-18.4c-1.7-3.8-7.6-8.5-12-8.1
		c-28.8,2.9-106.8,19.4-112.4,25c-5.7,5.6-21.4,88.4-24.7,112.1c0,5.1,3.7,10.5,7.8,12.3c4.6,2.1,18.4,8.5,18.4,8.5l5.7-11.3
		c0,0-12.6-5.5-16.3-8.1c-1.2-0.8-2-2.1-2.1-3.5C121.1,212.3,135.7,139.9,137.8,137.8L137.8,137.8z M541.5,551.5
		c0,0,25.4,21.3,28.3,18.4s-18.3-28.3-18.3-28.3l8.5-8.5c9.2,9.2,29,40.3,21.2,48.1s-38.9-12-48.1-21.2L541.5,551.5z M492.4,613.7
		c-1.4-0.1-2.7-0.9-3.5-2.1c-2.6-3.7-8.1-16.3-8.1-16.3l-11.3,5.7c0,0,6.4,13.8,8.5,18.4c1.8,4,7.2,7.8,12.3,7.8
		c23.7-3.3,106.5-19.1,112.1-24.7s22.1-83.7,25-112.4c0.5-4.5-4.2-10.3-8.1-12c-4.6-2.1-18.4-8.5-18.4-8.5l-5.7,11.3
		c0,0,12.4,6,16.5,7.8c1.2,0.8,2,2.1,2.1,3.5c-4.2,26.9-18.7,99-20.8,101.1S518.7,609.9,492.4,613.7z M533.1,171
		c9.2-9.2,40.3-29,48.1-21.2s-12,38.9-21.2,48.1l-8.4-8.5c0,0,21.2-25.5,18.4-28.3s-28.3,18.4-28.3,18.4L533.1,171z M593.2,137.8
		c2.1,2.1,16.5,74.2,20.8,101.1c-0.1,1.5-0.9,2.8-2.1,3.5c-4.2,1.8-16.5,7.8-16.5,7.8l5.7,11.3c0,0,13.8-6.4,18.4-8.5
		c3.8-1.7,8.5-7.6,8.1-12c-2.9-28.8-19.4-106.8-25-112.4s-88.5-21.4-112.1-24.7c-5.1,0-10.5,3.7-12.3,7.8
		c-2.1,4.6-8.5,18.4-8.5,18.4l11.3,5.7c0,0,5.5-12.6,8.1-16.3c0.8-1.2,2.1-2,3.5-2.1C518.7,121.1,591.1,135.7,593.2,137.8z
		 M179.5,541.5c0,0-21.3,25.4-18.4,28.3s28.3-18.3,28.3-18.3l8.5,8.5c-9.2,9.2-40.3,29-48.1,21.2s12-38.9,21.2-48.1L179.5,541.5z
		 M117.3,492.4c0.1-1.4,0.9-2.7,2.1-3.5c3.7-2.6,16.3-8.1,16.3-8.1l-5.7-11.3c0,0-13.8,6.4-18.4,8.5c-4.1,1.8-7.8,7.2-7.8,12.3
		c3.3,23.7,19.1,106.5,24.7,112.1s83.6,22.1,112.4,25c4.5,0.5,10.3-4.2,12-8.1c2.1-4.6,8.5-18.4,8.5-18.4l-11.3-5.7
		c0,0-6,12.4-7.8,16.5c-0.8,1.2-2.1,2-3.5,2.1c-26.9-4.2-99-18.7-101.1-20.8S121.1,518.7,117.3,492.4z"/>
</g>
</svg>
