<?xml version="1.0" encoding="utf-8"?>
<!-- Generator: Adobe Illustrator 21.0.0, SVG Export Plug-In . SVG Version: 6.00 Build 0)  -->
<svg version="1.1" id="vasishta_logotype" xmlns="http://www.w3.org/2000/svg" xmlns:xlink="http://www.w3.org/1999/xlink" x="0px"
	 y="0px" viewBox="0 0 3300 731" height="34px" width="153px" style="enable-background:new 0 0 3300 731;" xml:space="preserve">
<style type="text/css">
	.st0{fill:#EE972E;}
	.st1{fill:#FFFFFF;}
</style>
<title>vasishta_logo_symbol_m</title>
<g id="vasishta_yoga_1_">
	<path d="M944,260.3l77.4,168h1.1l75.1-168h22.3l-98.2,215.4L921,260.3H944z"/>
	<path d="M1294.4,470.7l-41.1-82.5H1164l-40.9,82.5H1102l107-215.4h0.7l107.1,215.4L1294.4,470.7L1294.4,470.7z M1243.5,368.5
		l-34.6-70.3l-34.9,70.3H1243.5L1243.5,368.5z"/>
	<path d="M1356.2,425.6c4.5,8.7,11.1,16.2,19.2,21.7c8.6,5.8,18.7,8.8,29,8.6c6,0,12-0.9,17.5-2.9c5.1-1.7,9.7-4.5,14-8
		c3.8-3.3,7.1-7.6,9.3-12.1c2.2-4.8,3.4-10,3.4-15.3c0-8-1.7-14.4-5.1-19.5c-3.5-5.1-8.2-9.4-13.6-12.6c-6.1-3.5-12.6-6.4-19.3-8.7
		c-7.3-2.5-14.5-5.1-22-8c-5.1-1.9-10.3-4.3-15.2-7.1c-5.3-2.9-10-6.6-14.2-10.9c-4.3-4.7-7.8-10-10.3-15.9
		c-2.7-6.9-4.1-14.3-4-21.7c-0.1-8,1.6-15.9,4.8-23.1c3.1-7.1,7.7-13.3,13.3-18.4c6-5.3,12.8-9.4,20.1-12.1
		c8.2-2.9,16.8-4.3,25.5-4.2c12.8,0,23.9,2.6,33.3,8c8.6,4.8,16.4,11,22.9,18.4l-15.1,16c-4.5-6.4-10.2-11.9-16.9-16.1
		c-7.3-4.5-15.9-6.9-24.6-6.6c-12.7,0-22.8,3.8-30.1,11.1c-7.3,7.3-11.2,16.6-11.2,27.9c-0.1,5.7,1.1,11.2,4,16.1
		c2.6,4.3,6.1,8.2,10.2,11.2c4.2,3.1,8.7,5.7,13.6,7.7c5,1.9,10,3.8,14.9,5.5c6.4,2.2,13,4.8,20.4,7.7c7.1,2.7,14,6.6,19.8,11.3
		c6.1,4.9,11.1,10.9,14.9,17.5c4,7.1,6,15.7,6,26.2c0,7.6-1.5,14.9-4.3,22s-7.1,13.3-12.7,18.5c-6.1,5.5-13,10-20.8,12.8
		c-9.2,3.4-18.7,5-28.4,4.9c-4.7,0-9.3-0.5-13.7-1c-5.8-0.8-11.3-2.5-16.6-4.9c-14.2-6.4-26-17.1-33.6-30.6L1356.2,425.6z"/>
	<path d="M1513.6,260.3l20.5,0.2v210.1l-20.5-0.2V260.3z"/>
	<path d="M1593.4,425.6c4.5,8.7,11.1,16.2,19.2,21.7c8.6,5.8,18.7,8.8,29,8.6c6,0,12-0.9,17.5-2.9c5.1-1.7,9.7-4.5,14-8
		c3.8-3.3,7.1-7.6,9.3-12.1c2.2-4.8,3.4-10,3.4-15.3c0-8-1.7-14.4-5.1-19.5c-3.5-5.1-8.2-9.4-13.6-12.6c-6.1-3.5-12.6-6.4-19.3-8.7
		c-7.3-2.5-14.5-5.1-22-8c-5.1-1.9-10.3-4.3-15.2-7.1c-5.3-2.9-10-6.6-14.2-10.9c-4.3-4.7-7.8-10-10.3-15.9
		c-2.7-6.9-4.1-14.3-4-21.7c-0.1-8,1.6-15.9,4.8-23.1c3.1-7.1,7.7-13.3,13.3-18.4c6-5.3,12.8-9.4,20.1-12.1
		c8.2-2.9,16.8-4.3,25.5-4.2c12.8,0,23.9,2.6,33.3,8c8.6,4.8,16.4,11,22.9,18.4l-15.1,16c-4.5-6.4-10.2-11.9-16.9-16.1
		c-7.3-4.5-15.9-6.9-24.6-6.6c-12.7,0-22.8,3.8-30.1,11.1c-7.3,7.3-11.2,16.6-11.2,28c-0.1,5.7,1.1,11.2,4,16.1
		c2.6,4.3,6.1,8.2,10.2,11.2c4.2,3.1,8.7,5.7,13.6,7.7c5,1.9,10,3.8,14.9,5.5c6.4,2.2,13,4.8,20.4,7.7c7.1,2.7,14,6.6,19.8,11.3
		c6.1,4.9,11.1,10.9,14.9,17.5c4,7.1,6,15.7,6,26.2c0,7.6-1.5,14.9-4.2,22c-2.9,7.1-7.1,13.3-12.7,18.5c-6.1,5.5-13,10-20.8,12.8
		c-9.2,3.4-18.7,5-28.4,4.9c-4.7,0-9.3-0.5-13.7-1c-5.8-0.8-11.3-2.5-16.6-4.9c-14.2-6.4-26-17.1-33.6-30.6L1593.4,425.6z"/>
	<path d="M1769.5,260.3v95.1h125.4v-95.1h20.5v210.4h-20.5V375h-125.4v95.7H1749V260.3H1769.5z"/>
	<path d="M2023.2,470.7h-20.5V280h-53.4v-19.6h128.5v19.7h-54.6L2023.2,470.7z"/>
	<path d="M2288.9,470.7l-41.1-82.5h-89.3l-40.9,82.5h-21.2l107.1-215.4h0.7l107.1,215.4L2288.9,470.7L2288.9,470.7z M2238.1,368.5
		l-34.6-70.3l-34.9,70.3H2238.1L2238.1,368.5z"/>
	<path d="M2464,260.3l61.1,108.9h1.1l54.4-108.9h23.7l-107.1,210.3h-24.8l42.3-79.2l-74.5-131.3L2464,260.3z"/>
	<path d="M2618.7,365.8c0-17.9,3.4-33.6,10.4-47.4c6.4-13.3,15.6-25.1,26.8-34.6c10.6-9.2,23-16.4,36.4-21.2
		c25.1-9.6,52.9-9.6,77.8,0c13.3,4.8,25.6,12,36.4,21.2c11.2,9.6,20.4,21.5,26.8,34.6c7.1,13.7,10.4,29.6,10.4,47.4
		c0,14.2-2.7,28-8.4,41.1c-5.4,13-13.3,25.1-23.2,35.2c-10.2,10.3-22.3,18.5-35.6,24.4c-29,12.2-61.8,12.2-90.9,0
		c-13.3-5.8-25.4-14.2-35.6-24.4c-10-10-17.9-22-23.2-35.2C2621.5,393.9,2618.7,380,2618.7,365.8z M2640.8,364.9
		c-0.1,24,9.2,47.4,26,64.5c8.2,8.4,17.9,14.9,28.7,19.5c23,9.4,48.7,9.4,71.7,0c10.6-4.5,20.5-11.1,28.7-19.5
		c24.8-25.6,32.6-63.4,19.9-96.6c-4-10.6-10-20.5-17.5-29c-8-8.8-17.5-15.9-28.4-20.8c-11.2-5.3-24-8-38.6-8
		c-14.5,0-27.3,2.6-38.6,8c-10.6,5-20.4,12-28.4,20.8c-7.6,8.5-13.5,18.2-17.5,29C2642.8,343,2640.8,354,2640.8,364.9L2640.8,364.9z
		"/>
	<path d="M3039.2,299.5c-3.4-3.3-7.3-6.2-11.2-8.8c-9.5-6.4-19.9-11-31.2-13.5c-17.5-4-36.2-2.4-52.8,4.5
		c-10.4,4.3-20.1,10.6-28,18.7c-8.4,8.4-14.9,18.2-19.3,29.1c-4.9,11.9-7.3,24.7-7.1,37.5c0,11.1,1.9,22.1,6,32.5
		c8,21.7,24.4,39.4,45.7,48.7c11.9,5.3,24.8,8,37.9,7.7c9.6,0,19.2-1.5,28.4-4.2c10-3.3,19.5-8.5,27.7-15.1V377h-63.2v-19.6h85.3
		v89.3c-7.1,5.8-14.6,11-22.8,15.2c-6.8,3.5-14,6.4-21.2,8.7c-6.2,1.9-12.6,3.3-19,4c-5.1,0.5-10.4,0.9-15.6,0.9
		c-18.4,0-34.6-3.1-48.3-9.6c-13.3-6-25.1-14.5-34.8-25.1c-9.3-10-16.4-22-21.2-34.8c-4.7-12.5-7.1-25.4-7.1-38.6
		c0-14,2.5-27.7,7.3-40.6c4.8-13.3,12-25.4,21.5-35.8c9.7-10.9,21.5-19.6,34.8-25.6c13.7-6.4,29.6-9.7,47.4-9.7
		c5.7,0,11.3,0.5,17,1.1c6.2,0.9,12.5,2.2,18.4,4.2c6.6,2.2,12.9,5,19,8.5c6.9,4,13.3,8.6,19.2,14L3039.2,299.5z"/>
	<path d="M3277.6,470.7l-41.1-82.5h-89.3l-40.9,82.5h-21.2l107.1-215.4h0.7l107,215.4L3277.6,470.7L3277.6,470.7z M3226.6,368.5
		l-34.6-70.3l-34.9,70.3H3226.6L3226.6,368.5z"/>
</g>
<g id="symbol">
	<circle id="back_ellipse" class="st0" cx="365.5" cy="365.5" r="365"/>
	<path id="circles" class="st1" d="M700.5,365.5c0,185-150,335-335,335s-335-150-335-335s150-335,335-335S700.5,180.5,700.5,365.5z
		 M365.5,45.5c-176.7,0-320,143.3-320,320s143.3,320,320,320s320-143.3,320-320S542.2,45.5,365.5,45.5z M622.5,365.5
		c0,141.9-115.1,257-257,257s-257-115.1-257-257s115.1-257,257-257S622.5,223.6,622.5,365.5z M365.5,123.5
		c-133.6,0-242,108.4-242,242s108.4,242,242,242s242-108.4,242-242S499.1,123.5,365.5,123.5z"/>
	<path id="triangles" class="st1" d="M515.3,365.5L589,236.6H441l-75.5-128.1L292,236.6H143l74.3,128.9l-74,128.3H292l73.5,128.7
		L441,493.8h148.3L515.3,365.5z M565.5,249.4l-58.4,101.1l-58.6-101.1H565.5z M424.1,493.4l-58.6,101.1l-58.4-101.1H424.1z
		 M448.5,479.5l58.4-101.1l58.6,101.1H448.5z M166.5,479.5l58.4-101.1l58.6,101.1H166.5z M307.1,235.2l58.4-101.7l58.6,101.7H307.1z
		 M432.5,249.4l29,50h-192l29-50H432.5z M232.8,363.4l28.8-50.1l96,166.3l-57.8-0.1L232.8,363.4z M431.3,479.4l-57.8,0.1l96-166.3
		l28.8,50.1L431.3,479.4z M277,313.3h177.2l-88.8,154.2L277,313.3z M225.6,350.5L167,249.4h117L225.6,350.5z M380.5,365.5
		c0,8.3-6.7,15-15,15s-15-6.7-15-15s6.7-15,15-15S380.5,357.2,380.5,365.5z"/>
	<path id="ornament" class="st1" d="M346.5,109.5c0-13,8-49,19-49s19,36,19,49h-12c0,0-3-33-7-33c-4.1,0-7,33-7,33H346.5z
		 M365.5,43.5c3,0,64.2,40.8,86.2,56.8c1,1.1,1.3,2.6,1,4c-1.7,4.2-6.2,17.2-6.2,17.2l12,4c0,0,5.2-14.3,7-19
		c1.5-3.9,0.7-11.4-2.8-14.2c-22.4-18.3-89.2-61.8-97.2-61.8s-77.7,47.4-96.8,61.8c-3.6,3.6-4.8,10-3.2,14.2c1.8,4.7,7,19,7,19l12-4
		c0,0-5-12.8-5.8-17.2c-0.3-1.4,0.1-2.9,1-4C301,84.3,362.5,43.5,365.5,43.5z M358.5,621.5c0,0,2.9,33,7,33c4,0,7-33,7-33h12
		c0,13-8,49-19,49s-19-36-19-49H358.5z M279.7,630.7c-0.9-1.1-1.3-2.6-1-4c0.8-4.4,5.8-17.2,5.8-17.2l-12-4c0,0-5.2,14.3-7,19
		c-1.6,4.2-0.4,10.6,3.2,14.2c19.1,14.4,88.8,61.8,96.8,61.8s74.8-43.5,97.2-61.8c3.5-2.8,4.3-10.3,2.8-14.2c-1.8-4.7-7-19-7-19
		l-12,4c0,0,4.5,13,6.2,17.2c0.3,1.4,0,2.9-1,4c-22,16-83.2,56.8-86.2,56.8S301,646.7,279.7,630.7L279.7,630.7z M109.5,384.5
		c-13,0-49-8-49-19s36-19,49-19v12c0,0-33,3-33,7c0,4.1,33,7,33,7V384.5z M43.5,365.5c0-3,40.8-64.2,56.8-86.2c1.1-1,2.6-1.3,4-1
		c4.2,1.7,17.2,6.2,17.2,6.2l4-12c0,0-14.3-5.2-19-7c-3.9-1.5-11.4-0.7-14.2,2.8c-18.3,22.4-61.8,89.2-61.8,97.2
		s47.4,77.7,61.8,96.8c3.6,3.6,10,4.8,14.2,3.2c4.7-1.8,19-7,19-7l-4-12c0,0-12.8,5-17.2,5.8c-1.4,0.3-2.9-0.1-4-1
		C84.3,430,43.5,368.5,43.5,365.5z M621.5,372.5c0,0,33-2.9,33-7c0-4-33-7-33-7v-12c13,0,49,8,49,19s-36,19-49,19V372.5z
		 M630.7,451.3c-1.1,0.9-2.6,1.3-4,1c-4.4-0.8-17.2-5.8-17.2-5.8l-4,12c0,0,14.3,5.2,19,7c4.2,1.6,10.6,0.4,14.2-3.2
		c14.4-19.1,61.8-88.8,61.8-96.8s-43.5-74.8-61.8-97.2c-2.8-3.5-10.3-4.3-14.2-2.8c-4.7,1.8-19,7-19,7l4,12c0,0,13-4.5,17.2-6.2
		c1.4-0.3,2.9,0,4,1c16,22,56.8,83.2,56.8,86.2S646.7,430,630.7,451.3L630.7,451.3z M171,197.9c-9.2-9.2-29-40.3-21.2-48.1
		s38.9,12,48.1,21.2l-8.5,8.4c0,0-25.5-21.2-28.3-18.4s18.4,28.3,18.4,28.3L171,197.9z M137.8,137.8c2.1-2.1,74.2-16.6,101.1-20.8
		c1.5,0.1,2.8,0.9,3.5,2.1c1.8,4.2,7.8,16.5,7.8,16.5l11.3-5.7c0,0-6.4-13.8-8.5-18.4c-1.7-3.8-7.6-8.5-12-8.1
		c-28.8,2.9-106.8,19.4-112.4,25c-5.7,5.6-21.4,88.4-24.7,112.1c0,5.1,3.7,10.5,7.8,12.3c4.6,2.1,18.4,8.5,18.4,8.5l5.7-11.3
		c0,0-12.6-5.5-16.3-8.1c-1.2-0.8-2-2.1-2.1-3.5C121.1,212.3,135.7,139.9,137.8,137.8L137.8,137.8z M541.5,551.5
		c0,0,25.4,21.3,28.3,18.4s-18.3-28.3-18.3-28.3l8.5-8.5c9.2,9.2,29,40.3,21.2,48.1s-38.9-12-48.1-21.2L541.5,551.5z M492.4,613.7
		c-1.4-0.1-2.7-0.9-3.5-2.1c-2.6-3.7-8.1-16.3-8.1-16.3l-11.3,5.7c0,0,6.4,13.8,8.5,18.4c1.8,4,7.2,7.8,12.3,7.8
		c23.7-3.3,106.5-19.1,112.1-24.7s22.1-83.7,25-112.4c0.5-4.5-4.2-10.3-8.1-12c-4.6-2.1-18.4-8.5-18.4-8.5l-5.7,11.3
		c0,0,12.4,6,16.5,7.8c1.2,0.8,2,2.1,2.1,3.5c-4.2,26.9-18.7,99-20.8,101.1S518.7,609.9,492.4,613.7z M533.1,171
		c9.2-9.2,40.3-29,48.1-21.2s-12,38.9-21.2,48.1l-8.4-8.5c0,0,21.2-25.5,18.4-28.3s-28.3,18.4-28.3,18.4L533.1,171z M593.2,137.8
		c2.1,2.1,16.5,74.2,20.8,101.1c-0.1,1.5-0.9,2.8-2.1,3.5c-4.2,1.8-16.5,7.8-16.5,7.8l5.7,11.3c0,0,13.8-6.4,18.4-8.5
		c3.8-1.7,8.5-7.6,8.1-12c-2.9-28.8-19.4-106.8-25-112.4s-88.5-21.4-112.1-24.7c-5.1,0-10.5,3.7-12.3,7.8
		c-2.1,4.6-8.5,18.4-8.5,18.4l11.3,5.7c0,0,5.5-12.6,8.1-16.3c0.8-1.2,2.1-2,3.5-2.1C518.7,121.1,591.1,135.7,593.2,137.8z
		 M179.5,541.5c0,0-21.3,25.4-18.4,28.3s28.3-18.3,28.3-18.3l8.5,8.5c-9.2,9.2-40.3,29-48.1,21.2s12-38.9,21.2-48.1L179.5,541.5z
		 M117.3,492.4c0.1-1.4,0.9-2.7,2.1-3.5c3.7-2.6,16.3-8.1,16.3-8.1l-5.7-11.3c0,0-13.8,6.4-18.4,8.5c-4.1,1.8-7.8,7.2-7.8,12.3
		c3.3,23.7,19.1,106.5,24.7,112.1s83.6,22.1,112.4,25c4.5,0.5,10.3-4.2,12-8.1c2.1-4.6,8.5-18.4,8.5-18.4l-11.3-5.7
		c0,0-6,12.4-7.8,16.5c-0.8,1.2-2.1,2-3.5,2.1c-26.9-4.2-99-18.7-101.1-20.8S121.1,518.7,117.3,492.4z"/>
</g>
</svg>
